PathFileType	4	(X/Y/Z)	62_1_48_p1_0-327.trc
DataRate	CameraRate	NumFrames	NumMarkers	Units	OrigDataRate	OrigDataStartFrame	OrigNumFrames
47.0	47.0	6	27	m	47.0	82	328
Frame#	Time	RHip			RKnee			RAnkle			RBigToe			RSmallToe			RHeel			LHip			LKnee			LAnkle			LBigToe			LSmallToe			LHeel			Neck			Head			Nose			RShoulder			RElbow			RWrist			RThumb			RIndex			RPinky			LShoulder			LElbow			LWrist			LThumb			LIndex			LPinky			
		X1	Y1	Z1	X2	Y2	Z2	X3	Y3	Z3	X4	Y4	Z4	X5	Y5	Z5	X6	Y6	Z6	X7	Y7	Z7	X8	Y8	Z8	X9	Y9	Z9	X10	Y10	Z10	X11	Y11	Z11	X12	Y12	Z12	X13	Y13	Z13	X14	Y14	Z14	X15	Y15	Z15	X16	Y16	Z16	X17	Y17	Z17	X18	Y18	Z18	X19	Y19	Z19	X20	Y20	Z20	X21	Y21	Z21	X22	Y22	Z22	X23	Y23	Z23	X24	Y24	Z24	X25	Y25	Z25	X26	Y26	Z26	X27	Y27	Z27	
82	1.7446808510638299	0.3139576043511248	0.4790812551805061	0.24996912038811037	0.32477202830311847	0.7729550728902544	0.49561784055431807	0.32569569249813496	1.0683902556307803	0.7860226437236445	0.29021437496485214	0.9333886584988904	0.9360619410479207	0.3614763771323238	0.9418085049415839	0.9255625719699728	0.3199462383831582	1.1319346004519597	0.8158082213630374	0.12005747028739229	0.49826523896665337	0.22589331027061674	0.14524449027749067	0.802557468477382	0.4838563776245379	0.16278811430130774	1.058002742217074	0.7838988119220864	0.12593069300548923	0.9260735157494139	0.9214480663470835	0.08560358277441228	0.975549635955821	0.8856717005020841	0.19897975935602943	1.1510416281450053	0.8037978856124901	0.22996824295209944	0.12974299015592575	-0.22089544775911932	0.21735422047914313	-0.06497554368392493	-0.39317516070550157	0.19092145166219618	-0.039654588193483664	-0.24531135194690645	0.3693534291575801	0.14429926300647736	-0.11756981881239358	0.3963891151994748	0.26097294265630677	0.12024338681863878	0.37438403169500356	0.43083883333280637	0.33699082932566843	0.30248352162348413	0.4508826104732177	0.44367492413588977	0.3216480827520172	0.4773781428966359	0.4675417082878911	0.36333622771541635	0.5258655422754807	0.4337324499778211	0.06529979620821956	0.1956562143606437	-0.17470180229235527	0.025700732816069334	0.34105887986418315	0.06306068615532326	0.04737270276912018	0.45921873491662146	0.279313095445804	0.08697687251043877	0.45705191471394035	0.37176586126103345	0.07966716158704634	0.4753405770150926	0.3963547310008345	0.056996470579383264	0.5536091382461654	0.3622604480538363
83	1.7659574468085106	0.3139640555650775	0.4791831807066796	0.25000968620715747	0.32470637121400375	0.7744541863235105	0.49922412331562027	0.32739301311853053	1.0745090164670743	0.793977660031415	0.29190652393200883	0.9191342193625178	0.9411755825851565	0.3610549007259193	0.940846323777177	0.9260981655044348	0.31309637434890525	1.1180735149008751	0.8177615448446984	0.124044080803863	0.5237074958283002	0.21637096121205607	0.14094376018087165	0.8021943859728838	0.4840110447004221	0.1564626854130773	1.0436991634323278	0.7858717482077047	0.1263501623263038	0.9275191601698498	0.9255030990468568	0.08118741861851907	0.9656091625925182	0.8911080342496577	0.19416415373889598	1.1410210162802854	0.8076442669003502	0.2298215858643558	0.12756948240061136	-0.2238537796960949	0.216544261315429	-0.05445391696228369	-0.40076523902069966	0.19091723821982307	-0.039448622727794126	-0.2454150573829335	0.3693037542584749	0.14422265483491473	-0.11755850033018858	0.3963467407325639	0.2609635251821923	0.12025681959290697	0.3743640871199846	0.430902350107316	0.3369688014680247	0.30248840971583474	0.45088164018721233	0.4437560373200321	0.3216606501523382	0.4775457526945112	0.4675904900276477	0.3632215019801825	0.5257216383679887	0.4337819823040761	0.06000445927409391	0.18588326957849932	-0.16903171937256298	0.025051115640723657	0.3379168636031805	0.06045686575167339	0.04738685493411191	0.4592463050002879	0.2792872912791702	0.08702769468605932	0.4571669365469124	0.37170246354819336	0.07972299402476075	0.47544303013313494	0.39625627935132507	0.05714388532883963	0.553511715893608	0.36224685785802774
84	1.7872340425531914	0.31398380884996163	0.4787798542299789	0.250028060573627	0.3244359345612837	0.7742943997738129	0.4994134985838973	0.3262219167916641	1.0760042499353941	0.7933412295812293	0.28600169666832265	0.9334732221182052	0.938798041298483	0.3508124903039413	0.9487792211522825	0.9271072136312779	0.31886211109028895	1.135555507792906	0.820338357958546	0.12613619394678874	0.5103702581220572	0.22171311805110028	0.1453352992538628	0.8026654642635925	0.48379133909919825	0.1563870494426986	1.0423105255630154	0.7814440520762352	0.1246852328324073	0.924076899022228	0.9215605473733646	0.0798397817130079	0.9611616382955889	0.8868886668059657	0.18714295672818357	1.1290639094075539	0.7963688976477918	0.22999142937829126	0.12976017773849685	-0.2209551655261579	0.2174388579217519	-0.06492979092551954	-0.3932665309623643	0.19096079956708306	-0.03936536729962318	-0.24551389085183425	0.36948509646039057	0.14440990175924684	-0.11768076899592814	0.39654467978348845	0.24974359695098927	0.12967136126134074	0.37515184082896025	0.4169192851573518	0.3418634763027916	0.30321363786908434	0.44846731563177805	0.440685958340309	0.3223464960388151	0.4747996077878948	0.4645784782593636	0.36356896614219875	0.5257316197857119	0.43380922163431174	0.06532327781577232	0.1955810522982209	-0.17472076043112342	0.024632709382922065	0.33994764824544155	0.06360458873155198	0.049378463287082	0.44643797682937164	0.28395658527573525	0.08706464947731107	0.457126462333307	0.37170886473992015	0.07972089913247155	0.4752416070548157	0.39655965198657656	0.056737330047303094	0.5557738948021481	0.36466046797469415
85	1.8085106382978724	0.3140807238127573	0.47901460513019095	0.24987195854187114	0.33123181401127805	0.7873428115637356	0.49627404377825696	0.3271362899799303	1.0727313507644887	0.7895302175950826	0.28622450045021847	0.935200261918888	0.9426784330083641	0.3506846162872722	0.9485747471413273	0.9273031901513402	0.3209261935583908	1.1291202480388718	0.8116569561363245	0.12436635856768202	0.5240987465129188	0.21640257409795144	0.1453155892416002	0.8027593367714263	0.4838467507469241	0.15641541830639408	1.042251925000052	0.7814442001247329	0.12541220093203834	0.9256515451733909	0.9214415242027386	0.07985519896705617	0.9616758999381847	0.88716525114451	0.19882558764144265	1.1470656032284132	0.7947137548640691	0.22999132504976544	0.12976715021923496	-0.22095920005286487	0.2165382320294782	-0.05444623486150534	-0.40078973004763085	0.19097698058907323	-0.039275454714790436	-0.24557419392002663	0.3701646038227289	0.14705197091209535	-0.11534756443255166	0.3964425952343396	0.24788765656599593	0.1262080649814961	0.37517655027831315	0.4171473973374621	0.3419097368903081	0.3026901792319625	0.45104895028909214	0.44416391049870063	0.32179744882287464	0.4780312777130632	0.46793829131986125	0.36309601414259113	0.5281166786948036	0.43672542001042686	0.06522422583997374	0.1934367212189938	-0.17769556053235205	0.025245145747977846	0.3428256418322176	0.06630081759594772	0.04883394164913224	0.44841927015289573	0.2867057731836331	0.08706132980016253	0.4571738740744608	0.3717143552407696	0.07971578111301354	0.4752556588064446	0.3966081835480687	0.05728612865705997	0.5537190288262852	0.36221925319440673
86	1.8297872340425532	0.3139273134352072	0.4789755917744583	0.2501001570274583	0.32441232092528205	0.7742098450085356	0.49936669903817493	0.3271376561021863	1.0727253535788914	0.7895170386909636	0.28525495191984296	0.9246812083073176	0.940223014118165	0.35009132087206907	0.9476462856066185	0.9279519443966291	0.32127750874865846	1.1295622720174932	0.8117036582655281	0.12431934095032263	0.5239424918216654	0.21641795147332732	0.1452205741242729	0.8012305604133885	0.4804375963704043	0.16268801347725553	1.0565449505387283	0.7793335791433732	0.1259012612149695	0.9279982791454315	0.9250714634551883	0.07987151481339336	0.9616295358738038	0.8869811333939793	0.19758072072000943	1.1435876833251284	0.7920177638398341	0.23012122951189848	0.12804547219916812	-0.2236879835923676	0.21740303858853713	-0.06311680106382264	-0.39009177033523157	0.19124917761075233	-0.04062713483473146	-0.24841545478954025	0.3695818895488203	0.14440420838081666	-0.11772103160825381	0.3964723348533478	0.262680114517499	0.12404631159922921	0.37530473315971463	0.41866802755019744	0.3450933420529904	0.30665309765171844	0.45249229052074613	0.4474875684490698	0.32196371443781285	0.47800829051092353	0.46816551667469475	0.3630663659786751	0.5278863850022427	0.43701227348155747	0.06530758357667053	0.19560392819872793	-0.1746825828695655	0.024586576331356892	0.33988023976486603	0.06353861875524311	0.04936122265788092	0.44634319503618375	0.2839640315609096	0.0870363865813671	0.4572338496337333	0.3716930940641964	0.07970016407987746	0.47527494740586035	0.39646244247258805	0.05663115172884146	0.5558260658858885	0.3647452845621923
87	1.851063829787234	0.31393630292011127	0.4788913347172575	0.2500611570461064	0.3244256066985041	0.7744008804694553	0.49922587861425416	0.32723155615178173	1.0729585136885518	0.7897772833903398	0.2857755729558921	0.9081904003585679	0.9459440623018301	0.35021865133898705	0.9478205166712369	0.9277589469529312	0.3202006028316309	1.1330487389930932	0.8161245754343082	0.126172963603563	0.5101756729752726	0.2218150073053444	0.14520622455175788	0.8012377388816052	0.4804368481931773	0.162734413868072	1.056660941886569	0.7795920960063625	0.12588857848471166	0.9279248545247889	0.9252115537531379	0.07992775590023832	0.9618358202821079	0.887139445568076	0.19898133439490434	1.147477088776403	0.7948529323925856	0.23012353896196802	0.12799757199489428	-0.22363174647982795	0.2165790898965587	-0.05438110044847288	-0.4008214209483699	0.191214911468499	-0.04053894005986674	-0.24841312711850133	0.36949214553165177	0.1441890764560399	-0.11760203361427035	0.39645887698659943	0.2625764552756219	0.12402713518200034	0.37526701628647713	0.4184792164291419	0.3451296250450832	0.30613021766710896	0.45462058683765777	0.4506332691415909	0.32207213755438724	0.47779841951113006	0.46819140400192616	0.3626894979221719	0.5300949255012507	0.4399531777922013	0.060028588321134	0.18589644296659227	-0.16895453832567045	0.025028109634459516	0.3378917744253408	0.060383738891378345	0.047317739406524444	0.459064566137719	0.27929959667556414	0.08692595956706366	0.45572697773233567	0.3686337178446101	0.07967366420344515	0.4753101420944765	0.3962913567452781	0.05705055745368627	0.5537570740275977	0.3621490604202155
